<?xml version="1.0" encoding="UTF-8"?>
<svg xmlns="http://www.w3.org/2000/svg" xmlns:xlink="http://www.w3.org/1999/xlink" width="67px" height="25px" viewBox="0 0 224 83" version="1.1">
<defs>
<clipPath id="clip1">
  <path d="M 146 4.027344 L 194 4.027344 L 194 50.765625 L 146 50.765625 Z M 146 4.027344 "/>
</clipPath>
<clipPath id="clip2">
  <path d="M 190.246094 12.113281 C 183.316406 2.875 168.632812 2.25 157.449219 10.714844 C 146.265625 19.179688 142.820312 33.53125 149.746094 42.769531 C 156.675781 52.003906 171.359375 52.628906 182.542969 44.164062 C 193.726562 35.699219 197.175781 21.347656 190.246094 12.113281 Z M 190.246094 12.113281 "/>
</clipPath>
<clipPath id="clip3">
  <path d="M 121.226562 22.859375 L 179.019531 -20.886719 L 219.007812 32.417969 L 161.214844 76.167969 Z M 121.226562 22.859375 "/>
</clipPath>
<clipPath id="clip4">
  <path d="M 190.246094 12.113281 C 183.316406 2.875 168.632812 2.25 157.449219 10.714844 C 146.265625 19.179688 142.820312 33.53125 149.746094 42.769531 C 156.675781 52.003906 171.359375 52.628906 182.542969 44.164062 C 193.726562 35.699219 197.175781 21.347656 190.246094 12.113281 Z M 190.246094 12.113281 "/>
</clipPath>
<clipPath id="clip5">
  <path d="M 137.320312 26.417969 L 177.789062 -4.214844 L 202.90625 29.269531 L 162.4375 59.902344 Z M 137.320312 26.417969 "/>
</clipPath>
<clipPath id="clip6">
  <path d="M 146 4.027344 L 194 4.027344 L 194 50.765625 L 146 50.765625 Z M 146 4.027344 "/>
</clipPath>
<clipPath id="clip7">
  <path d="M 190.246094 12.113281 C 183.316406 2.875 168.632812 2.25 157.449219 10.714844 C 146.265625 19.179688 142.820312 33.53125 149.746094 42.769531 C 156.675781 52.003906 171.359375 52.628906 182.542969 44.164062 C 193.726562 35.699219 197.175781 21.347656 190.246094 12.113281 Z M 190.246094 12.113281 "/>
</clipPath>
<clipPath id="clip8">
  <path d="M 121.226562 22.859375 L 179.019531 -20.886719 L 219.007812 32.417969 L 161.214844 76.167969 Z M 121.226562 22.859375 "/>
</clipPath>
<clipPath id="clip9">
  <path d="M 190.246094 12.113281 C 183.316406 2.875 168.632812 2.25 157.449219 10.714844 C 146.265625 19.179688 142.820312 33.53125 149.746094 42.769531 C 156.675781 52.003906 171.359375 52.628906 182.542969 44.164062 C 193.726562 35.699219 197.175781 21.347656 190.246094 12.113281 Z M 190.246094 12.113281 "/>
</clipPath>
<clipPath id="clip10">
  <path d="M 143.085938 46.527344 L 157.050781 -2.402344 L 197.171875 9.152344 L 183.207031 58.082031 Z M 143.085938 46.527344 "/>
</clipPath>
<clipPath id="clip11">
  <path d="M 146 4.027344 L 194 4.027344 L 194 50.765625 L 146 50.765625 Z M 146 4.027344 "/>
</clipPath>
<clipPath id="clip12">
  <path d="M 190.246094 12.113281 C 183.316406 2.875 168.632812 2.25 157.449219 10.714844 C 146.265625 19.179688 142.820312 33.53125 149.746094 42.769531 C 156.675781 52.003906 171.359375 52.628906 182.542969 44.164062 C 193.726562 35.699219 197.175781 21.347656 190.246094 12.113281 Z M 190.246094 12.113281 "/>
</clipPath>
<clipPath id="clip13">
  <path d="M 121.226562 22.859375 L 179.019531 -20.886719 L 219.007812 32.417969 L 161.214844 76.167969 Z M 121.226562 22.859375 "/>
</clipPath>
<clipPath id="clip14">
  <path d="M 190.246094 12.113281 C 183.316406 2.875 168.632812 2.25 157.449219 10.714844 C 146.265625 19.179688 142.820312 33.53125 149.746094 42.769531 C 156.675781 52.003906 171.359375 52.628906 182.542969 44.164062 C 193.726562 35.699219 197.175781 21.347656 190.246094 12.113281 Z M 190.246094 12.113281 "/>
</clipPath>
<clipPath id="clip15">
  <path d="M 137.320312 26.417969 L 177.789062 -4.214844 L 202.90625 29.269531 L 162.4375 59.902344 Z M 137.320312 26.417969 "/>
</clipPath>
<clipPath id="clip16">
  <path d="M 146 4.027344 L 194 4.027344 L 194 50.765625 L 146 50.765625 Z M 146 4.027344 "/>
</clipPath>
<clipPath id="clip17">
  <path d="M 190.246094 12.113281 C 183.316406 2.875 168.632812 2.25 157.449219 10.714844 C 146.265625 19.179688 142.820312 33.53125 149.746094 42.769531 C 156.675781 52.003906 171.359375 52.628906 182.542969 44.164062 C 193.726562 35.699219 197.175781 21.347656 190.246094 12.113281 Z M 190.246094 12.113281 "/>
</clipPath>
<clipPath id="clip18">
  <path d="M 121.226562 22.859375 L 179.019531 -20.886719 L 219.007812 32.417969 L 161.214844 76.167969 Z M 121.226562 22.859375 "/>
</clipPath>
<clipPath id="clip19">
  <path d="M 190.246094 12.113281 C 183.316406 2.875 168.632812 2.25 157.449219 10.714844 C 146.265625 19.179688 142.820312 33.53125 149.746094 42.769531 C 156.675781 52.003906 171.359375 52.628906 182.542969 44.164062 C 193.726562 35.699219 197.175781 21.347656 190.246094 12.113281 Z M 190.246094 12.113281 "/>
</clipPath>
<clipPath id="clip20">
  <path d="M 143.085938 46.527344 L 157.050781 -2.402344 L 197.171875 9.152344 L 183.207031 58.082031 Z M 143.085938 46.527344 "/>
</clipPath>
<clipPath id="clip21">
  <path d="M 146 4.027344 L 194 4.027344 L 194 50.765625 L 146 50.765625 Z M 146 4.027344 "/>
</clipPath>
<clipPath id="clip22">
  <path d="M 190.246094 12.113281 C 183.316406 2.875 168.632812 2.25 157.449219 10.714844 C 146.265625 19.179688 142.820312 33.53125 149.746094 42.769531 C 156.675781 52.003906 171.359375 52.628906 182.542969 44.164062 C 193.726562 35.699219 197.175781 21.347656 190.246094 12.113281 Z M 190.246094 12.113281 "/>
</clipPath>
<clipPath id="clip23">
  <path d="M 121.226562 22.859375 L 179.019531 -20.886719 L 219.007812 32.417969 L 161.214844 76.167969 Z M 121.226562 22.859375 "/>
</clipPath>
<clipPath id="clip24">
  <path d="M 190.246094 12.113281 C 183.316406 2.875 168.632812 2.25 157.449219 10.714844 C 146.265625 19.179688 142.820312 33.53125 149.746094 42.769531 C 156.675781 52.003906 171.359375 52.628906 182.542969 44.164062 C 193.726562 35.699219 197.175781 21.347656 190.246094 12.113281 Z M 190.246094 12.113281 "/>
</clipPath>
<clipPath id="clip25">
  <path d="M 146 4.027344 L 194 4.027344 L 194 50.765625 L 146 50.765625 Z M 146 4.027344 "/>
</clipPath>
<clipPath id="clip26">
  <path d="M 190.246094 12.113281 C 183.316406 2.875 168.632812 2.25 157.449219 10.714844 C 146.265625 19.179688 142.820312 33.53125 149.746094 42.769531 C 156.675781 52.003906 171.359375 52.628906 182.542969 44.164062 C 193.726562 35.699219 197.175781 21.347656 190.246094 12.113281 Z M 190.246094 12.113281 "/>
</clipPath>
<clipPath id="clip27">
  <path d="M 121.226562 22.859375 L 179.019531 -20.886719 L 219.007812 32.417969 L 161.214844 76.167969 Z M 121.226562 22.859375 "/>
</clipPath>
<clipPath id="clip28">
  <path d="M 158.269531 14 L 184 14 L 184 41 L 158.269531 41 Z M 158.269531 14 "/>
</clipPath>
<clipPath id="clip29">
  <path d="M 190.246094 12.113281 C 183.316406 2.875 168.632812 2.25 157.449219 10.714844 C 146.265625 19.179688 142.820312 33.53125 149.746094 42.769531 C 156.675781 52.003906 171.359375 52.628906 182.542969 44.164062 C 193.726562 35.699219 197.175781 21.347656 190.246094 12.113281 Z M 190.246094 12.113281 "/>
</clipPath>
<clipPath id="clip30">
  <path d="M 121.226562 22.859375 L 179.019531 -20.886719 L 219.007812 32.417969 L 161.214844 76.167969 Z M 121.226562 22.859375 "/>
</clipPath>
</defs>
<g id="surface1">
<path style=" stroke:none;fill-rule:nonzero;fill:rgb(100%,100%,100%);fill-opacity:1;" d="M 115.621094 27.492188 L 126.207031 26.804688 C 126.449219 28.542969 126.890625 29.835938 127.617188 30.765625 C 128.78125 32.21875 130.394531 32.949219 132.523438 32.949219 C 134.097656 32.949219 135.34375 32.585938 136.1875 31.816406 C 136.996094 31.210938 137.476562 30.242188 137.476562 29.230469 C 137.476562 28.261719 137.03125 27.328125 136.269531 26.722656 C 135.464844 25.996094 133.570312 25.265625 130.59375 24.621094 C 125.722656 23.53125 122.222656 22.074219 120.167969 20.214844 C 118.117188 18.476562 116.949219 15.925781 117.03125 13.21875 C 117.03125 11.359375 117.59375 9.5 118.640625 7.964844 C 119.847656 6.226562 121.5 4.851562 123.46875 4.082031 C 125.605469 3.152344 128.582031 2.667969 132.324219 2.667969 C 136.914062 2.667969 140.414062 3.515625 142.828125 5.257812 C 145.242188 6.953125 146.691406 9.703125 147.132812 13.464844 L 136.671875 14.070312 C 136.386719 12.453125 135.824219 11.277344 134.902344 10.511719 C 133.972656 9.742188 132.765625 9.378906 131.199219 9.378906 C 129.910156 9.378906 128.945312 9.664062 128.300781 10.1875 C 127.695312 10.675781 127.292969 11.402344 127.332031 12.210938 C 127.332031 12.816406 127.65625 13.382812 128.140625 13.746094 C 128.664062 14.230469 129.910156 14.675781 131.878906 15.082031 C 136.753906 16.132812 140.214844 17.183594 142.347656 18.273438 C 144.480469 19.363281 146.007812 20.699219 146.933594 22.277344 C 147.902344 23.894531 148.382812 25.75 148.339844 27.652344 C 148.339844 29.917969 147.699219 32.183594 146.410156 34.082031 C 145.082031 36.0625 143.230469 37.601562 141.058594 38.527344 C 138.765625 39.539062 135.867188 40.066406 132.40625 40.066406 C 126.289062 40.066406 122.0625 38.894531 119.6875 36.507812 C 117.3125 34.121094 115.902344 31.132812 115.621094 27.492188 Z M 3.292969 39.457031 L 3.292969 3.316406 L 21.847656 3.316406 C 25.269531 3.316406 27.925781 3.597656 29.734375 4.207031 C 31.503906 4.773438 33.078125 5.941406 34.121094 7.519531 C 35.289062 9.257812 35.851562 11.277344 35.8125 13.382812 C 35.933594 16.9375 34.121094 20.335938 31.023438 22.113281 C 29.816406 22.800781 28.488281 23.285156 27.121094 23.53125 C 28.125 23.8125 29.132812 24.296875 30.015625 24.863281 C 30.699219 25.429688 31.261719 26.074219 31.789062 26.761719 C 32.390625 27.453125 32.914062 28.21875 33.355469 29.027344 L 38.75 39.496094 L 26.113281 39.496094 L 20.15625 28.378906 C 19.390625 26.96875 18.746094 26.035156 18.144531 25.589844 C 17.339844 25.023438 16.375 24.742188 15.40625 24.742188 L 14.441406 24.742188 L 14.441406 39.417969 L 3.292969 39.417969 Z M 14.441406 17.953125 L 19.148438 17.953125 C 20.15625 17.871094 21.125 17.710938 22.089844 17.464844 C 22.8125 17.34375 23.457031 16.9375 23.898438 16.332031 C 24.988281 14.875 24.828125 12.816406 23.496094 11.5625 C 22.773438 10.957031 21.363281 10.632812 19.351562 10.632812 L 14.441406 10.632812 Z M 0.757812 70.429688 L 11.34375 69.738281 C 11.585938 71.480469 12.027344 72.773438 12.75 73.703125 C 13.878906 75.15625 15.527344 75.925781 17.660156 75.925781 C 19.230469 75.925781 20.480469 75.5625 21.324219 74.792969 C 22.128906 74.144531 22.609375 73.214844 22.609375 72.207031 C 22.609375 71.234375 22.171875 70.304688 21.402344 69.699219 C 20.597656 68.96875 18.707031 68.242188 15.6875 67.597656 C 10.820312 66.503906 7.320312 65.046875 5.265625 63.191406 C 3.214844 61.449219 2.042969 58.902344 2.125 56.195312 C 2.125 54.335938 2.6875 52.476562 3.734375 50.941406 C 4.941406 49.203125 6.59375 47.828125 8.566406 47.058594 C 10.699219 46.128906 13.675781 45.640625 17.421875 45.640625 C 22.007812 45.640625 25.507812 46.492188 27.925781 48.230469 C 30.339844 49.96875 31.746094 52.675781 32.191406 56.4375 L 21.726562 57.042969 C 21.445312 55.429688 20.882812 54.253906 19.953125 53.488281 C 19.070312 52.71875 17.824219 52.355469 16.25 52.394531 C 14.964844 52.394531 13.996094 52.675781 13.355469 53.246094 C 12.710938 53.730469 12.347656 54.457031 12.390625 55.265625 C 12.390625 55.871094 12.710938 56.4375 13.195312 56.800781 C 13.71875 57.285156 14.964844 57.734375 16.9375 58.136719 C 21.804688 59.1875 25.269531 60.238281 27.402344 61.332031 C 29.535156 62.421875 31.0625 63.753906 31.988281 65.332031 C 32.953125 66.949219 33.4375 68.808594 33.4375 70.671875 C 33.4375 72.933594 32.753906 75.15625 31.503906 77.058594 C 30.179688 79.035156 28.328125 80.574219 26.152344 81.503906 C 23.859375 82.515625 20.960938 83.039062 17.5 83.039062 C 11.382812 83.039062 7.160156 81.867188 4.78125 79.484375 C 2.410156 77.058594 1.078125 74.066406 0.757812 70.429688 Z M 0.757812 70.429688 "/>
<path style=" stroke:none;fill-rule:nonzero;fill:rgb(100%,100%,100%);fill-opacity:1;" d="M 54.285156 67.597656 L 64.023438 70.546875 C 63.503906 73.015625 62.414062 75.359375 60.925781 77.421875 C 59.558594 79.242188 57.75 80.65625 55.695312 81.582031 C 53.601562 82.515625 50.945312 83 47.726562 83 C 43.820312 83 40.601562 82.433594 38.148438 81.304688 C 35.652344 80.171875 33.515625 78.148438 31.707031 75.277344 C 29.894531 72.40625 29.011719 68.726562 29.011719 64.242188 C 29.011719 58.257812 30.582031 53.648438 33.757812 50.457031 C 36.941406 47.261719 41.40625 45.640625 47.203125 45.640625 C 51.75 45.640625 55.292969 46.574219 57.910156 48.394531 C 60.484375 50.253906 62.414062 53.082031 63.703125 56.882812 L 53.882812 59.066406 C 53.644531 58.21875 53.277344 57.367188 52.796875 56.640625 C 52.195312 55.789062 51.425781 55.144531 50.503906 54.660156 C 49.574219 54.171875 48.527344 53.972656 47.484375 53.972656 C 44.949219 53.972656 43.015625 54.980469 41.691406 57.042969 C 40.683594 58.542969 40.160156 60.925781 40.160156 64.160156 C 40.160156 68.160156 40.761719 70.914062 41.96875 72.40625 C 43.175781 73.902344 44.867188 74.628906 47.082031 74.628906 C 49.214844 74.628906 50.824219 74.027344 51.910156 72.851562 C 53 71.597656 53.804688 69.859375 54.285156 67.597656 Z M 77.027344 46.25 L 88.132812 46.25 L 88.132812 58.902344 L 100.289062 58.902344 L 100.289062 46.25 L 111.476562 46.25 L 111.476562 82.390625 L 100.289062 82.390625 L 100.289062 67.757812 L 88.132812 67.757812 L 88.132812 82.390625 L 77.027344 82.390625 Z M 77.027344 46.25 "/>
<path style=" stroke:none;fill-rule:nonzero;fill:rgb(100%,100%,100%);fill-opacity:1;" d="M 109.949219 64.320312 C 109.949219 58.417969 111.597656 53.8125 114.855469 50.539062 C 118.117188 47.261719 122.707031 45.605469 128.542969 45.605469 C 134.535156 45.605469 139.125 47.21875 142.386719 50.457031 C 145.644531 53.6875 147.257812 58.21875 147.257812 64.039062 C 147.257812 68.285156 146.53125 71.722656 145.125 74.429688 C 143.753906 77.097656 141.621094 79.28125 139.007812 80.738281 C 136.308594 82.230469 132.96875 83 128.984375 83 C 124.917969 83 121.578125 82.355469 118.921875 81.0625 C 116.1875 79.683594 113.933594 77.542969 112.441406 74.914062 C 110.792969 72.082031 109.949219 68.566406 109.949219 64.320312 Z M 121.054688 64.363281 C 121.054688 68 121.742188 70.628906 123.066406 72.246094 C 124.398438 73.820312 126.25 74.628906 128.582031 74.628906 C 130.957031 74.628906 132.808594 73.863281 134.132812 72.285156 C 135.464844 70.710938 136.109375 67.917969 136.109375 63.878906 C 136.109375 60.480469 135.421875 57.976562 134.054688 56.4375 C 132.683594 54.863281 130.835938 54.09375 128.5 54.09375 C 126.449219 54.011719 124.476562 54.902344 123.109375 56.480469 C 121.742188 58.054688 121.054688 60.683594 121.054688 64.363281 Z M 158.644531 64.320312 C 158.644531 58.417969 160.296875 53.8125 163.554688 50.539062 C 166.816406 47.261719 171.402344 45.605469 177.242188 45.605469 C 183.238281 45.605469 187.863281 47.21875 191.085938 50.457031 C 194.304688 53.6875 195.953125 58.21875 195.953125 64.039062 C 195.953125 68.285156 195.230469 71.722656 193.820312 74.429688 C 192.453125 77.097656 190.320312 79.28125 187.703125 80.738281 C 185.007812 82.230469 181.664062 83 177.683594 83 C 173.621094 83 170.277344 82.355469 167.621094 81.0625 C 164.882812 79.683594 162.628906 77.542969 161.140625 74.914062 C 159.492188 72.082031 158.644531 68.566406 158.644531 64.320312 Z M 169.753906 64.363281 C 169.753906 68 170.4375 70.628906 171.769531 72.246094 C 173.09375 73.820312 174.945312 74.628906 177.28125 74.628906 C 179.65625 74.628906 181.503906 73.863281 182.835938 72.285156 C 184.160156 70.710938 184.804688 67.917969 184.804688 63.878906 C 184.804688 60.480469 184.121094 57.976562 182.753906 56.4375 C 181.386719 54.863281 179.535156 54.09375 177.199219 54.09375 C 175.148438 54.011719 173.136719 54.902344 171.804688 56.480469 C 170.4375 58.054688 169.753906 60.683594 169.753906 64.363281 Z M 169.753906 64.363281 "/>
<path style=" stroke:none;fill-rule:nonzero;fill:rgb(100%,100%,100%);fill-opacity:1;" d="M 194.789062 46.25 L 205.898438 46.25 L 205.898438 73.5 L 223.242188 73.5 L 223.242188 82.390625 L 194.746094 82.390625 L 194.746094 46.25 Z M 194.789062 46.25 "/>
<path style=" stroke:none;fill-rule:nonzero;fill:rgb(100%,100%,100%);fill-opacity:1;" d="M 190.246094 12.113281 C 183.316406 2.875 168.632812 2.25 157.449219 10.714844 C 146.265625 19.179688 142.820312 33.53125 149.746094 42.769531 C 156.675781 52.003906 171.359375 52.628906 182.542969 44.164062 C 193.726562 35.699219 197.175781 21.347656 190.246094 12.113281 Z M 190.246094 12.113281 "/>
<g clip-path="url(#clip1)" clip-rule="nonzero">
<g clip-path="url(#clip2)" clip-rule="nonzero">
<path style=" stroke:none;fill-rule:nonzero;fill:rgb(100%,100%,100%);fill-opacity:1;" d="M 121.226562 22.859375 L 179.019531 -20.886719 L 219.007812 32.417969 L 161.214844 76.167969 Z M 121.226562 22.859375 "/>
<g clip-path="url(#clip3)" clip-rule="nonzero">
<path style=" stroke:none;fill-rule:nonzero;fill:rgb(100%,100%,100%);fill-opacity:1;" d="M 190.246094 12.113281 C 183.316406 2.875 168.632812 2.25 157.449219 10.714844 C 146.265625 19.179688 142.820312 33.53125 149.746094 42.769531 C 156.675781 52.003906 171.359375 52.628906 182.542969 44.164062 C 193.726562 35.699219 197.175781 21.347656 190.246094 12.113281 Z M 190.246094 12.113281 "/>
<g clip-path="url(#clip4)" clip-rule="nonzero">
<path style=" stroke:none;fill-rule:nonzero;fill:rgb(100%,100%,100%);fill-opacity:1;" d="M 137.320312 26.417969 L 177.789062 -4.214844 L 202.90625 29.269531 L 162.4375 59.902344 Z M 137.320312 26.417969 "/>
<g clip-path="url(#clip5)" clip-rule="nonzero">
<path style="fill-rule:nonzero;fill:rgb(100%,100%,100%);fill-opacity:1;stroke-width:4;stroke-linecap:butt;stroke-linejoin:miter;stroke:rgb(100%,100%,100%);stroke-opacity:1;stroke-miterlimit:10;" d="M 483.495449 67.902809 C 483.497047 39.291293 455.290523 16.09967 420.497779 16.097783 C 385.705034 16.095896 357.504404 39.293987 357.495054 67.899662 C 357.499271 96.503461 385.705795 119.695084 420.498539 119.696971 C 455.291284 119.698858 483.499665 96.506608 483.495449 67.902809 Z M 483.495449 67.902809 " transform="matrix(0.321422,-0.243311,0.242217,0.322873,18.393026,107.828983)"/>
</g>
</g>
</g>
</g>
</g>
<g clip-path="url(#clip6)" clip-rule="nonzero">
<g clip-path="url(#clip7)" clip-rule="nonzero">
<g clip-path="url(#clip8)" clip-rule="nonzero">
<g clip-path="url(#clip9)" clip-rule="nonzero">
<g clip-path="url(#clip10)" clip-rule="nonzero">
<path style="fill:none;stroke-width:4;stroke-linecap:butt;stroke-linejoin:miter;stroke:rgb(100%,100%,100%);stroke-opacity:1;stroke-miterlimit:10;" d="M 357.802029 17.000919 L 483.705576 17.001475 L 483.702291 120.705206 L 357.798744 120.70465 Z M 357.802029 17.000919 " transform="matrix(0.321426,-0.243305,0.242212,0.322877,18.195784,107.983865)"/>
</g>
</g>
</g>
</g>
</g>
<g clip-path="url(#clip11)" clip-rule="nonzero">
<g clip-path="url(#clip12)" clip-rule="nonzero">
<g clip-path="url(#clip13)" clip-rule="nonzero">
<g clip-path="url(#clip14)" clip-rule="nonzero">
<path style="fill:none;stroke-width:4;stroke-linecap:butt;stroke-linejoin:miter;stroke:rgb(100%,100%,100%);stroke-opacity:1;stroke-miterlimit:10;" d="M 483.495449 67.902809 C 483.497047 39.291293 455.290523 16.09967 420.497779 16.097783 C 385.705034 16.095896 357.504404 39.293987 357.495054 67.899662 C 357.499271 96.503461 385.705795 119.695084 420.498539 119.696971 C 455.291284 119.698858 483.499665 96.506608 483.495449 67.902809 Z M 483.495449 67.902809 " transform="matrix(0.321422,-0.243311,0.242217,0.322873,18.393026,107.828983)"/>
<path style=" stroke:none;fill-rule:nonzero;fill:rgb(100%,100%,100%);fill-opacity:1;" d="M 137.320312 26.417969 L 177.789062 -4.214844 L 202.90625 29.269531 L 162.4375 59.902344 Z M 137.320312 26.417969 "/>
<g clip-path="url(#clip15)" clip-rule="nonzero">
<path style="fill-rule:nonzero;fill:rgb(100%,100%,100%);fill-opacity:1;stroke-width:4;stroke-linecap:butt;stroke-linejoin:miter;stroke:rgb(100%,100%,100%);stroke-opacity:1;stroke-miterlimit:10;" d="M 483.495449 67.902809 C 483.497047 39.291293 455.290523 16.09967 420.497779 16.097783 C 385.705034 16.095896 357.504404 39.293987 357.495054 67.899662 C 357.499271 96.503461 385.705795 119.695084 420.498539 119.696971 C 455.291284 119.698858 483.499665 96.506608 483.495449 67.902809 Z M 483.495449 67.902809 " transform="matrix(0.321422,-0.243311,0.242217,0.322873,18.393026,107.828983)"/>
</g>
</g>
</g>
</g>
</g>
<g clip-path="url(#clip16)" clip-rule="nonzero">
<g clip-path="url(#clip17)" clip-rule="nonzero">
<g clip-path="url(#clip18)" clip-rule="nonzero">
<g clip-path="url(#clip19)" clip-rule="nonzero">
<g clip-path="url(#clip20)" clip-rule="nonzero">
<path style="fill:none;stroke-width:4;stroke-linecap:butt;stroke-linejoin:miter;stroke:rgb(100%,100%,100%);stroke-opacity:1;stroke-miterlimit:10;" d="M 357.802029 17.000919 L 483.705576 17.001475 L 483.702291 120.705206 L 357.798744 120.70465 Z M 357.802029 17.000919 " transform="matrix(0.321426,-0.243305,0.242212,0.322877,18.195784,107.983865)"/>
</g>
</g>
</g>
</g>
</g>
<g clip-path="url(#clip21)" clip-rule="nonzero">
<g clip-path="url(#clip22)" clip-rule="nonzero">
<g clip-path="url(#clip23)" clip-rule="nonzero">
<g clip-path="url(#clip24)" clip-rule="nonzero">
<path style="fill:none;stroke-width:4;stroke-linecap:butt;stroke-linejoin:miter;stroke:rgb(100%,100%,100%);stroke-opacity:1;stroke-miterlimit:10;" d="M 330.899084 -14.198649 L 510.700035 -14.194211 L 510.699009 150.899807 L 330.892243 150.903086 Z M 330.899084 -14.198649 " transform="matrix(0.321422,-0.243311,0.242217,0.322873,18.307635,107.955084)"/>
</g>
</g>
</g>
</g>
<g clip-path="url(#clip25)" clip-rule="nonzero">
<g clip-path="url(#clip26)" clip-rule="nonzero">
<g clip-path="url(#clip27)" clip-rule="nonzero">
<path style="fill:none;stroke-width:4;stroke-linecap:butt;stroke-linejoin:miter;stroke:rgb(100%,100%,100%);stroke-opacity:1;stroke-miterlimit:10;" d="M 483.495449 67.902809 C 483.497047 39.291293 455.290523 16.09967 420.497779 16.097783 C 385.705034 16.095896 357.504404 39.293987 357.495054 67.899662 C 357.499271 96.503461 385.705795 119.695084 420.498539 119.696971 C 455.291284 119.698858 483.499665 96.506608 483.495449 67.902809 Z M 483.495449 67.902809 " transform="matrix(0.321422,-0.243311,0.242217,0.322873,18.393026,107.828983)"/>
</g>
</g>
</g>
<g clip-path="url(#clip28)" clip-rule="nonzero">
<g clip-path="url(#clip29)" clip-rule="nonzero">
<g clip-path="url(#clip30)" clip-rule="nonzero">
<path style=" stroke:none;fill-rule:nonzero;fill:#026aa7;fill-opacity:1;" d="M 158.6875 24.78125 L 162.710938 21.953125 L 167.660156 29.027344 C 168.503906 30.160156 169.148438 31.375 169.632812 32.707031 C 169.917969 33.71875 169.835938 34.808594 169.433594 35.78125 C 168.90625 36.992188 168.066406 38.003906 166.9375 38.730469 C 165.605469 39.660156 164.480469 40.1875 163.515625 40.347656 C 162.589844 40.507812 161.625 40.347656 160.738281 39.945312 C 159.773438 39.457031 158.929688 38.769531 158.285156 37.878906 L 161.746094 34.648438 C 162.027344 35.089844 162.390625 35.496094 162.792969 35.816406 C 163.074219 36.023438 163.394531 36.140625 163.757812 36.140625 C 164.039062 36.140625 164.320312 36.023438 164.523438 35.859375 C 164.925781 35.617188 165.203125 35.132812 165.167969 34.648438 C 165.042969 33.960938 164.765625 33.273438 164.320312 32.746094 Z M 170.757812 29.269531 L 174.425781 26.359375 C 174.828125 26.84375 175.347656 27.210938 175.910156 27.410156 C 176.714844 27.652344 177.5625 27.492188 178.246094 26.96875 C 178.730469 26.644531 179.132812 26.199219 179.292969 25.632812 C 179.535156 24.90625 179.132812 24.097656 178.40625 23.855469 C 178.285156 23.8125 178.164062 23.773438 178.046875 23.773438 C 177.5625 23.730469 176.714844 23.933594 175.472656 24.457031 C 173.417969 25.308594 171.804688 25.632812 170.597656 25.507812 C 169.433594 25.390625 168.34375 24.78125 167.699219 23.773438 C 167.21875 23.085938 166.976562 22.277344 166.9375 21.46875 C 166.9375 20.539062 167.179688 19.605469 167.699219 18.839844 C 168.46875 17.746094 169.390625 16.820312 170.519531 16.089844 C 172.207031 14.917969 173.699219 14.351562 174.988281 14.351562 C 176.273438 14.351562 177.480469 14.957031 178.609375 16.210938 L 174.988281 19.082031 C 174.261719 18.152344 172.894531 17.953125 171.96875 18.679688 L 171.847656 18.796875 C 171.445312 19.039062 171.160156 19.40625 171 19.851562 C 170.882812 20.175781 170.960938 20.539062 171.160156 20.820312 C 171.324219 21.023438 171.566406 21.183594 171.847656 21.183594 C 172.171875 21.226562 172.734375 21.066406 173.539062 20.699219 C 175.550781 19.851562 177.078125 19.363281 178.125 19.203125 C 179.011719 19.039062 179.9375 19.121094 180.78125 19.488281 C 181.546875 19.808594 182.191406 20.375 182.632812 21.066406 C 183.195312 21.871094 183.515625 22.84375 183.558594 23.855469 C 183.597656 24.90625 183.316406 25.914062 182.753906 26.804688 C 182.03125 27.894531 181.101562 28.828125 180.015625 29.554688 C 177.804688 31.089844 175.992188 31.734375 174.542969 31.492188 C 172.976562 31.25 171.6875 30.441406 170.757812 29.269531 Z M 170.757812 29.269531 "/>
</g>
</g>
</g>
</g>
</svg>
